HIERARCHY
ROOT Hips
{
	OFFSET -14.64140 90.27770 -84.91600
	CHANNELS 6 Xposition Yposition Zposition Zrotation Xrotation Yrotation
	JOINT Spine
	{
		OFFSET 0.00000 13.20850 -1.60436
		CHANNELS 3 Zrotation Xrotation Yrotation
		JOINT Spine1
		{
			OFFSET 0.00000 8.61716 0.00000
			CHANNELS 3 Zrotation Xrotation Yrotation
			JOINT Spine2
			{
				OFFSET 0.00000 8.61717 0.00000
				CHANNELS 3 Zrotation Xrotation Yrotation
				JOINT Spine3
				{
					OFFSET 0.00000 8.61717 0.00000
					CHANNELS 3 Zrotation Xrotation Yrotation
					JOINT Neck
					{
						OFFSET 0.00000 11.07920 1.10792
						CHANNELS 3 Zrotation Xrotation Yrotation
						JOINT Neck1
						{
							OFFSET 0.00000 7.08032 0.00000
							CHANNELS 3 Zrotation Xrotation Yrotation
							JOINT Head
							{
								OFFSET 0.00000 7.08031 0.00000
								CHANNELS 3 Zrotation Xrotation Yrotation
								End site
								{
									OFFSET 0.00000 0.00000 0.00000
								}
							}
						}
					}
					JOINT RightShoulder
					{
						OFFSET -0.01000 7.91373 5.19711
						CHANNELS 3 Zrotation Xrotation Yrotation
						JOINT RightArm
						{
							OFFSET -18.41580 0.00000 0.00000
							CHANNELS 3 Zrotation Xrotation Yrotation
							JOINT RightForeArm
							{
								OFFSET -29.11090 0.00000 0.00000
								CHANNELS 3 Zrotation Xrotation Yrotation
								JOINT RightHand
								{
									OFFSET -24.65040 0.00000 0.00000
									CHANNELS 3 Zrotation Xrotation Yrotation
									JOINT RightHandThumb1
									{
										OFFSET -5.35114 -0.85590 3.97906
										CHANNELS 3 Zrotation Xrotation Yrotation
										JOINT RightHandThumb2
										{
											OFFSET -4.52789 0.00000 0.00000
											CHANNELS 3 Zrotation Xrotation Yrotation
											JOINT RightHandThumb3
											{
												OFFSET -2.46976 0.00000 0.00000
												CHANNELS 3 Zrotation Xrotation Yrotation
												End site
												{
													OFFSET 0.00000 0.00000 0.00000
												}
											}
										}
									}
									JOINT RightHandIndex1
									{
										OFFSET -14.26970 0.00000 2.88139
										CHANNELS 3 Zrotation Xrotation Yrotation
										JOINT RightHandIndex2
										{
											OFFSET -5.48836 0.00000 0.00000
											CHANNELS 3 Zrotation Xrotation Yrotation
											JOINT RightHandIndex3
											{
												OFFSET -3.01859 0.00000 0.00000
												CHANNELS 3 Zrotation Xrotation Yrotation
												End site
												{
													OFFSET 0.00000 0.00000 0.00000
												}
											}
										}
									}
									JOINT RightHandMiddle1
									{
										OFFSET -14.26970 0.00000 -0.09147
										CHANNELS 3 Zrotation Xrotation Yrotation
										JOINT RightHandMiddle2
										{
											OFFSET -6.17441 0.00000 0.00000
											CHANNELS 3 Zrotation Xrotation Yrotation
											JOINT RightHandMiddle3
											{
												OFFSET -3.56743 0.00000 0.00000
												CHANNELS 3 Zrotation Xrotation Yrotation
												End site
												{
													OFFSET 0.00000 0.00000 0.00000
												}
											}
										}
									}
									JOINT RightHandRing1
									{
										OFFSET -12.69180 0.00000 -3.06433
										CHANNELS 3 Zrotation Xrotation Yrotation
										JOINT RightHandRing2
										{
											OFFSET -5.62556 0.00000 0.00000
											CHANNELS 3 Zrotation Xrotation Yrotation
											JOINT RightHandRing3
											{
												OFFSET -3.56744 0.00000 0.00000
												CHANNELS 3 Zrotation Xrotation Yrotation
												End site
												{
													OFFSET 0.00000 0.00000 0.00000
												}
											}
										}
									}
									JOINT RightHandPinky1
									{
										OFFSET -11.11390 0.00000 -6.03719
										CHANNELS 3 Zrotation Xrotation Yrotation
										JOINT RightHandPinky2
										{
											OFFSET -4.52789 0.00000 0.00000
											CHANNELS 3 Zrotation Xrotation Yrotation
											JOINT RightHandPinky3
											{
												OFFSET -2.46976 0.00000 0.00000
												CHANNELS 3 Zrotation Xrotation Yrotation
												End site
												{
													OFFSET 0.00000 0.00000 0.00000
												}
											}
										}
									}
								}
							}
						}
					}
					JOINT LeftShoulder
					{
						OFFSET 0.01000 7.91373 5.19711
						CHANNELS 3 Zrotation Xrotation Yrotation
						JOINT LeftArm
						{
							OFFSET 18.41580 0.00000 0.00000
							CHANNELS 3 Zrotation Xrotation Yrotation
							JOINT LeftForeArm
							{
								OFFSET 29.11090 0.00000 0.00000
								CHANNELS 3 Zrotation Xrotation Yrotation
								JOINT LeftHand
								{
									OFFSET 24.65040 0.00000 0.00000
									CHANNELS 3 Zrotation Xrotation Yrotation
									JOINT LeftHandThumb1
									{
										OFFSET 5.35114 -0.85590 3.97906
										CHANNELS 3 Zrotation Xrotation Yrotation
										JOINT LeftHandThumb2
										{
											OFFSET 4.52789 0.00000 0.00000
											CHANNELS 3 Zrotation Xrotation Yrotation
											JOINT LeftHandThumb3
											{
												OFFSET 2.46977 0.00000 0.00000
												CHANNELS 3 Zrotation Xrotation Yrotation
												End site
												{
													OFFSET 0.00000 0.00000 0.00000
												}
											}
										}
									}
									JOINT LeftHandIndex1
									{
										OFFSET 14.26970 0.00000 2.88139
										CHANNELS 3 Zrotation Xrotation Yrotation
										JOINT LeftHandIndex2
										{
											OFFSET 5.48836 0.00000 0.00000
											CHANNELS 3 Zrotation Xrotation Yrotation
											JOINT LeftHandIndex3
											{
												OFFSET 3.01859 0.00000 0.00000
												CHANNELS 3 Zrotation Xrotation Yrotation
												End site
												{
													OFFSET 0.00000 0.00000 0.00000
												}
											}
										}
									}
									JOINT LeftHandMiddle1
									{
										OFFSET 14.26970 0.00000 -0.09147
										CHANNELS 3 Zrotation Xrotation Yrotation
										JOINT LeftHandMiddle2
										{
											OFFSET 6.17440 0.00000 0.00000
											CHANNELS 3 Zrotation Xrotation Yrotation
											JOINT LeftHandMiddle3
											{
												OFFSET 3.56744 0.00000 0.00000
												CHANNELS 3 Zrotation Xrotation Yrotation
												End site
												{
													OFFSET 0.00000 0.00000 0.00000
												}
											}
										}
									}
									JOINT LeftHandRing1
									{
										OFFSET 12.69180 0.00000 -3.06433
										CHANNELS 3 Zrotation Xrotation Yrotation
										JOINT LeftHandRing2
										{
											OFFSET 5.62556 0.00000 0.00000
											CHANNELS 3 Zrotation Xrotation Yrotation
											JOINT LeftHandRing3
											{
												OFFSET 3.56744 0.00000 0.00000
												CHANNELS 3 Zrotation Xrotation Yrotation
												End site
												{
													OFFSET 0.00000 0.00000 0.00000
												}
											}
										}
									}
									JOINT LeftHandPinky1
									{
										OFFSET 11.11390 0.00000 -6.03719
										CHANNELS 3 Zrotation Xrotation Yrotation
										JOINT LeftHandPinky2
										{
											OFFSET 4.52789 0.00000 0.00000
											CHANNELS 3 Zrotation Xrotation Yrotation
											JOINT LeftHandPinky3
											{
												OFFSET 2.46976 0.00000 0.00000
												CHANNELS 3 Zrotation Xrotation Yrotation
												End site
												{
													OFFSET 0.00000 0.00000 0.00000
												}
											}
										}
									}
								}
							}
						}
					}
					JOINT pCube4
					{
						OFFSET 0.00000 10.91090 1.10792
						CHANNELS 3 Zrotation Xrotation Yrotation
						End site
						{
							OFFSET 0.00000 0.00000 0.00000
						}
					}
				}
			}
		}
	}
	JOINT RightUpLeg
	{
		OFFSET -9.98441 0.00000 0.00000
		CHANNELS 3 Zrotation Xrotation Yrotation
		JOINT RightLeg
		{
			OFFSET 0.00000 -42.11790 0.00000
			CHANNELS 3 Zrotation Xrotation Yrotation
			JOINT RightFoot
			{
				OFFSET 0.00000 -45.00020 -0.00001
				CHANNELS 3 Zrotation Xrotation Yrotation
				JOINT RightForeFoot
				{
					OFFSET 0.00000 -3.74820 0.00000
					CHANNELS 3 Zrotation Xrotation Yrotation
					JOINT RightToeBase
					{
						OFFSET 0.00000 0.06325 14.43120
						CHANNELS 3 Zrotation Xrotation Yrotation
						End site
						{
							OFFSET 0.00000 0.00000 0.00000
						}
					}
				}
			}
		}
	}
	JOINT LeftUpLeg
	{
		OFFSET 9.98441 0.00000 0.00000
		CHANNELS 3 Zrotation Xrotation Yrotation
		JOINT LeftLeg
		{
			OFFSET 0.00000 -42.11800 0.00000
			CHANNELS 3 Zrotation Xrotation Yrotation
			JOINT LeftFoot
			{
				OFFSET 0.00000 -45.00070 0.00000
				CHANNELS 3 Zrotation Xrotation Yrotation
				JOINT LeftForeFoot
				{
					OFFSET 0.00000 -3.74824 0.00000
					CHANNELS 3 Zrotation Xrotation Yrotation
					JOINT LeftToeBase
					{
						OFFSET 0.00000 0.06325 14.43110
						CHANNELS 3 Zrotation Xrotation Yrotation
						End site
						{
							OFFSET 0.00000 0.00000 0.00000
						}
					}
				}
			}
		}
	}
}
MOTION
Frames: 4
Frame Time: 0.050000
0.018743787673929903 0.0006502334081980869 -0.009884023409034118 0.0375239837222553 -0.03632089936544671 -0.032448622329888634 -2.037130701519958 2.783867336644436 -0.8719341965891138 -1.0028040197592887 3.9156131680955 0.3345557635700856 -1.0437734318708787 -1.449833581979626 -1.314256716257992 -0.3753826541820333 0.45563840141609446 -0.8173838674664095 -1.1681417348441214 11.690338697544219 2.4988988625237205 -0.09288290083640618 -2.08258718417277 4.750183581078881 -0.5111395995478022 -18.69466511013275 0.34875897440500137 -3.3937071335967266 1.4008385919646482 -14.369484271113732 73.34644459842495 21.659566403604682 0.3554467836314959 5.214726933830914 5.875939323005873 53.1800012864055 20.406920811705994 -0.0953994897743679 -4.390912950073017 4.537149928193268 -0.16152212377550915 -1.6126096131282959 -0.015033449362911738 -0.035515800977273644 -56.2557335762774 0.009663901168214252 0.030732626455098097 -56.24749709200942 -38.7907773147351 0.026980387598185458 0.0028768025222818956 0.024389417723861204 0.011644488766140241 0.042726449492106695 -0.023776893830509335 -0.045503101425560626 0.031052948866298814 -36.689323977487845 0.005521553274524235 -0.021573193440371848 -0.01176058818854999 0.030369390228912274 0.019556634518475897 0.0018365620818376913 -0.0020724865293339375 -0.009137282302665767 -19.777228349615584 -0.04461651669760531 -0.0267994664383466 0.02568245081901044 0.033018125452237465 0.022800869686916806 -0.02141025805143467 -0.021881142539029036 0.007297855318470198 24.059543026447095 -0.006750831188362766 0.024339048810891016 28.88796029083072 0.013142572417843135 0.027784751637902217 28.88716148365773 -0.025608696741087313 -0.004554504611339827 6.604458777179321 1.507736959769509 12.710176912736902 -73.12923312492141 26.040125071576547 -10.896303044981583 -40.499284732402934 2.5324096410197017 -78.64911709306543 -11.982965695697992 -1.803405441402021 1.7662502713646664 -0.4551088370204747 0.08107889680278038 -8.148946734671556 0.005083943723680312 -0.011264611250083892 44.567124823615 0.0111867515471513 0.010419004248878067 44.59678577330243 12.44422468756773 0.008811090955647272 0.010405146483395824 0.039689691581337526 0.006533649738582131 0.04270286315065904 -0.04983947663372693 -0.026832401026479262 -0.01563337439538393 11.13478297926874 0.005882627438008991 -0.02359369704520569 -0.0015996101675229723 0.012651354756818759 -0.00035328503532476986 0.03324119362148954 0.02318400087189685 0.02433114433249085 4.734150713583946 -0.033951170963650495 0.018557986182588505 -0.030467560591231024 0.017407621573256125 0.0465698336787575 0.02968807303415151 0.02495260824917066 0.021172087886941884 -5.570764031625919 -0.010739590891615651 0.04451855210691367 -6.7609722693588115 0.04762662446020824 -0.03748163104630116 -6.701684976689511 -0.020731082821582893 0.03445957645971972 0.009468362976802012 -0.019953298080045638 -0.0012059036495797627 7.99670205746078 3.5172254986686813 -19.255009244751726 -0.002625590482174676 10.373377223848436 -0.0314673349115112 -5.577492889500725 -15.708100193384203 3.195874158528095 -0.012787140897499475 -0.028596761694361244 -0.003877868073357876 0.049635413274876784 4.65064720605906 -0.025897459023893506 12.458218420540407 -8.272594155217819 6.840693648191543 -0.03621496436733338 46.346043664744414 0.005097104171210194 -4.283810939646158 -14.761398165265957 -3.8679432889080427 0.0033876375863290493 0.03811952454044601 -0.0007898031058913179 0.030100905970908094 -10.788532141244294 0.02635100108669815 
0.024812076545292154 0.0013516429277853296 0.00768014645597164 0.04820758508162442 0.027559941488516006 -0.040448524566567286 -2.1445711120382502 2.692905881044539 -0.8433087640801428 -0.9674671051301971 3.8077877399280746 0.33957178847493247 -1.0521963721757475 -1.4519457272163494 -1.3860468471915899 -0.4548979601533391 0.4058168611532455 -0.8252999050979103 -1.2031572102113237 11.672072073108048 2.764310565631325 -0.02345931680164583 -1.8997405129684268 5.393888833502306 -0.5217705968027432 -18.488279134591213 0.4553356084801614 -3.1315219373895604 1.403078384746848 -14.352640008208793 73.47768799896122 22.367678386107272 -0.3255557876433987 6.408235823566508 6.563650728784012 52.4654319519535 21.225334314484094 -0.08714962738420703 -4.549335543792504 4.5108890744280306 -0.09980282651857744 -1.5799898724798083 0.03731116678912742 0.0045278172218057204 -56.25654529561965 0.0018675117387388824 0.0032921696296926367 -56.28169576186209 -38.752796200258 -0.03126701304110436 0.03676749722935583 -0.03163102453011337 0.019320253093177864 -0.003791500404974611 -0.03014997250605752 -0.014387131077669323 -0.00025588260641907216 -36.64851389066484 -0.04442372883098128 0.01563433547525553 0.0018931136189863833 0.0007916288462876299 0.033816124959667716 0.01568941993742009 0.024901688206936425 -0.01365947476593412 -19.747434142656743 0.02948338221848983 0.008012303750875416 -0.03371093665663242 -0.011337993156578187 0.03148398473941003 0.003576689993942134 0.004464244416478357 0.001176481609278564 24.030473247158984 -0.01737011646094862 -0.017892162034843284 28.82104890950689 -0.017632672264351418 0.01195617654397563 28.896019921314625 -0.04026868528116059 0.006870046676563652 6.726109456077839 1.5151137049644117 12.681250084317897 -73.26647013211168 25.701462935991778 -10.98597579180015 -45.00110565428341 2.8265131983055873 -82.342165440581 -12.2970052297459 -1.9999946690756283 1.750168145979809 -0.5069933365119424 0.05159732526842599 -8.109061872150711 0.025471806366281925 0.0016831456684762735 44.56611166319536 0.008683074892824123 0.003586744483173418 44.61460419638867 12.475426196014443 0.021120404373780488 0.02788389539845585 0.04114783384747608 -0.04577752376899515 -0.02652100365993759 0.018530626635108283 0.020875429778939563 0.03474215457706826 11.143196418228948 0.030584539760738744 0.03466265058002539 -0.038106017705298936 0.04250173479295054 0.03431999441158248 0.017200505069804164 0.004774394958267888 0.031055984609979048 4.804996938255292 -0.021030367376876295 -0.003298788751481321 0.03180738385381011 -0.009997030087164887 0.03955588013606568 -0.04578504926368808 -0.03767592759613688 -0.04016724566454618 -5.566477862776548 0.0034391920752642603 0.006174342839117099 -6.747568429880303 -0.0025770672214103668 0.012015468287224483 -6.72219195022955 0.012176097599065551 -0.025333270880479607 0.045971037899805625 -0.02910552486040386 -0.008542480971541262 8.063451084047227 3.483846865124371 -19.22053556868843 0.03143858348838391 10.360871965408633 0.04651224536009729 -5.582128008685862 -15.706228533066135 3.222657237527554 0.008822437106596645 0.031321731408811365 -0.034689544662150115 0.032193664131491544 4.7293218727008135 0.04558989334637401 12.505464185737976 -8.273991667985083 6.929968903663626 -0.04567721792006484 46.384671253363166 0.028464605464372343 -4.3002381927398785 -14.7611408055574 -3.8034161867165546 -0.039320407288266954 0.01597381180045455 0.030482644801181548 0.014714049712438523 -10.728675832163306 0.0038747215038034554 
-0.023871298509897526 -0.0348103904460724 -0.04409411526676412 -0.03572698492904374 -0.014690729373594297 -0.031147600165218687 -2.3654702505324825 2.5749425142304587 -0.8747984460786592 -0.9976501609570423 3.763086137185173 0.40111786923951315 -1.0568658703999194 -1.4821335402847255 -1.5028749161146513 -0.45694591842130156 0.4927316270917756 -0.8655236279776888 -1.2670016054226576 11.690217046864024 2.989636811001978 0.008184298202758632 -1.7897891065917104 5.77930436993152 -0.5550696944264719 -18.14826048129309 0.4909743336821358 -2.871129295696754 1.3328831360729243 -14.24185467197339 73.29632482255943 22.21051674007631 -0.7233070707283932 7.385638689730412 7.117702630943055 51.83189867889499 22.14775268016014 -0.09719821910177821 -4.597975550159859 4.522596904618758 -0.11005323931999376 -1.6365418335937179 -0.02243520032644182 -0.024527808821444525 -56.21459347863029 0.046934238720397925 0.038187399598178004 -56.27033580708838 -38.80411396374762 0.0392335451149944 -0.04930748536014871 0.0386781473045867 -0.02215937920347493 -0.0350962493996244 -0.03187318716020963 -0.0018927651686948064 -0.0033376740077275635 -36.650526642754144 0.013598384522943428 0.032584504081259576 0.03348813590082773 0.011056947144139902 0.023562618229492963 -0.0032854046609631857 -0.00196175399825402 0.003063527237250538 -19.731819489945746 0.014099752806539072 -0.04628555563843417 0.005493230190210382 0.004178793291478981 0.042135244887325216 -0.03536829482698847 -0.018569134149279735 -0.0020879362562583608 24.050169682896836 -0.02499397821871036 0.02037537277403186 28.826928468249463 -0.04991253485589055 -0.0004739516765866441 28.89040611301996 0.03745438152828297 -0.02992959991689294 6.536021392547128 1.550320726169136 12.600957855986012 -73.00668109229409 25.31073029967066 -11.052363672945386 -48.56302821621223 2.730971754848463 -85.17914684026574 -12.474397976678423 -2.073879614660381 1.5662768340637312 -0.4254969749686326 0.11435114885933692 -8.165543064179058 -0.000582478575544265 -0.005602149152177725 44.567987510271934 -0.03883909981766053 0.024376274487972447 44.57019043267512 12.425968015495428 0.020352951634475203 0.04941340690659252 0.014915860578964648 0.015362894766092648 0.0009781297740445517 -4.946609612205395e-05 0.023657911340890757 -0.03495038787232628 11.074385660407216 0.006077187043628008 0.02327798197779476 -0.036851116074905786 0.021436586907585004 -0.04153561450821906 0.015077661236403625 -0.012349948360809222 -0.014191665661028937 4.762832926697004 -0.012113697971900211 -0.00406874366028139 0.004299353524367887 0.005275208684508246 -0.011235445263390915 0.02183720301749855 0.029995604648975587 0.01871178994883733 -5.563497860409727 -0.02015583021816316 0.04394437608074316 -6.762043000254647 -0.012013541527671843 -0.004516583954583239 -6.735918057616919 -0.008015738897502343 -0.015356497833313453 0.010216401171791569 -0.02821470911294893 0.045412961625955685 8.073295665471292 3.4782787158006387 -19.216118096882514 -0.004171549998871044 10.361554144588364 0.02680082387503796 -5.628456395245977 -15.627871292514753 3.215937562519049 -0.026601417952514212 -0.02310684686921106 0.03346960563525476 0.004294534196751773 4.6617073971137035 0.026733391850835102 12.486938553246524 -8.274690535924462 6.896718840700527 0.0008783948622263365 46.34733059630652 -0.015778808426871155 -4.333155585496294 -14.742796142479433 -3.8014754032906826 0.03679944695264573 0.0012339992188880426 -0.021417864605101665 -0.016388650440365377 -10.698343826909099 -0.0050762701888133685 
0.0074554556103081475 0.02454584553293593 0.024601436775787786 -0.017876958258651935 -0.014582596634904861 -0.013679484334483316 -2.5224169387390996 2.3767448033483856 -0.7770029525106873 -1.0125109379945114 3.788065489852737 0.34762932516652534 -0.9911796905804447 -1.5710953421899172 -1.5624706817995002 -0.4662061444652036 0.4791085604839626 -0.8488330584414059 -1.2740180092920244 11.630610306186513 3.0539223548919994 -0.028079512677951567 -1.658070635921793 6.088385838747327 -0.6597860609772509 -17.788219628713776 0.44488642473937395 -2.6881521501194654 1.2739352516060722 -14.215434439821742 73.05881163721654 22.02289015729826 -0.9954372747030286 7.740270176406281 7.174168077745281 51.368657450447266 22.808323445706872 -0.08178974505133713 -4.592378746457119 4.508723678809423 -0.14785521399927953 -1.562088716266608 -0.035139721981949666 -0.03583153613953635 -56.2355100447266 -0.015265900376587581 0.010046643682062421 -56.21260480678569 -38.726049460238876 0.015274935680271124 0.007217160511832691 -0.027459058196014234 -0.04115003570525044 -0.03497881061806567 -0.049298993835614174 0.0069090239961611 0.04343199295874268 -36.71085461259729 0.03754279951870249 -0.04394376506602433 -0.021454307493671165 -0.02095685806566005 0.005662939763043775 0.0038850576893995022 0.007804165913814711 0.040805432461682445 -19.77192242322917 0.026758639218437765 -0.0029208379103335745 0.031948146387812126 -0.027416781516981095 -0.03613644809884111 0.043717753100966796 -0.0059740005123196955 0.021783219455386277 24.100720284793994 0.04993266046571484 0.037249654198340795 28.87853422266617 -0.03452945439526967 -0.023651333263905866 28.87801439367035 0.04267040111491765 0.013612827934850604 6.489849766622218 1.4808529752178576 12.610748137788782 -72.6938523276821 25.13305175498407 -11.075695563563311 -50.33896977964198 2.4768352762495986 -86.49133042883412 -12.44798954413821 -2.0595631961459864 1.4473801883168036 -0.4301983454072704 0.06644757554079286 -8.105144979744113 -0.019831609499057393 0.01975225675580175 44.57817526307723 0.01257958206960627 0.033636412950715844 44.59190630957982 12.430979587413823 0.010769376048777401 0.029881257362205205 0.04413618873206099 -0.034597288709235056 -0.00814031123483772 0.016703826602570988 0.01165084063674301 -0.024468577343943552 11.10000848182189 -0.020554545699843083 0.01567278638206556 -0.0012711819495466183 -0.015358633051926147 0.010619369458367304 0.0326442536456952 -0.02024445789644168 0.010740949881464935 4.760912574618757 -0.02080824747408164 -0.009642874682941076 0.010773266893630689 -0.046463608368004033 0.008921765165267201 -0.006514016808750225 -0.009431925810126678 -0.024688645482909277 -5.632042525131727 0.026974231756626013 -0.045422590827967124 -6.759679749858029 0.01888773149043899 -0.03613963951929474 -6.754532058302423 -0.03186852776727983 0.03765288565508543 -0.03793158780775144 0.01418635419312431 -0.014499771902569724 8.018658002113089 3.4955041985248116 -19.212333098041743 0.01856639523707921 10.354740987590404 0.06297624002975487 -5.6196142389943615 -15.61255653205827 3.159345158414431 0.025486238462951227 -0.045802508920171014 0.000996794463634085 -0.025959896988472557 4.675775673883595 -0.022565789309160287 12.43407248456132 -8.254679591606875 6.8540663947720555 -0.045116431732880595 46.34691784749512 -0.004762984526941447 -4.323574327045732 -14.77771848084053 -3.834111028086537 -0.014005349981946729 -0.025250458499057053 0.02939642192197105 -0.008340163542766378 -10.697955470108354 0.0067287607105495665 
